#!OML:ASF G:\JayActor3\Patient Classification 1\Patient 1\Session 6\male.ASF
:FULLY-SPECIFIED
:DEGREES
1296
root -8.69147 16.5316 -2.90805 357.238 -21.1707 -366.866
lowerback 7.44378 -0.290013 7.83551
upperback -1.59127 0.469538 2.00513
thorax -5.82439 -0.00632712 -2.35355
lowerneck 11.494 -2.57516 0.390039
upperneck -18.9064 -2.95597 2.77978
head -7.6813 -1.71812 1.14385
rclavicle 0 1.78906e-014
rhumerus -27.6732 14.8788 -83.2246
rradius 37.3714
rwrist 8.50356
rhand -9.18016 -0.119405
rfingers 7.12502
rthumb 16.773 -29.4149
lclavicle 0 1.78906e-014
lhumerus -55.1844 1.77038 80.5543
lradius 37.6513
lwrist 26.1168
lhand -9.94253 7.74797
lfingers 7.12502
lthumb 16.039 37.1041
rfemur 14.6571 3.30557 32.6236
rtibia 11.7085
rfoot -17.7982 -17.1134
rtoes -3.20812
lfemur -30.6628 15.1209 -12.9647
ltibia 46.2784
lfoot -9.75341 3.97576
ltoes -17.4841
1297
root -8.71913 16.523 -2.83046 357.381 -21.4915 -366.922
lowerback 7.40683 -0.269868 7.86101
upperback -1.60609 0.494149 1.97371
thorax -5.81628 0.00422658 -2.4036
lowerneck 11.4218 -2.51516 0.371714
upperneck -18.9555 -2.87125 2.81554
head -7.68481 -1.68035 1.14988
rclavicle 2.95692e-014 5.20816e-014
rhumerus -27.619 14.9723 -83.4521
rradius 37.6699
rwrist 8.32678
rhand -9.10485 -0.124193
rfingers 7.12502
rthumb 16.8455 -29.4135
lclavicle 2.95692e-014 5.20816e-014
lhumerus -55.4779 2.07827 80.5055
lradius 37.5835
lwrist 26.1562
lhand -10.0564 7.85615
lfingers 7.12502
lthumb 15.9294 37.2211
rfemur 14.965 3.2793 32.6122
rtibia 11.4987
rfoot -17.7972 -16.8601
rtoes -3.36789
lfemur -30.5454 14.8831 -13.0245
ltibia 44.2837
lfoot -10.0666 4.02214
ltoes -17.5473
1298
root -8.74462 16.5137 -2.75142 357.573 -21.8544 -367.014
lowerback 7.32717 -0.239108 7.93805
upperback -1.62631 0.533942 1.94861
thorax -5.78792 0.0211175 -2.47735
lowerneck 11.339 -2.45324 0.359977
upperneck -18.9625 -2.78366 2.84825
head -7.67277 -1.64105 1.15273
rclavicle -2.48481e-017 -2.82274e-014
rhumerus -27.5738 15.0421 -83.6755
rradius 37.9628
rwrist 8.15792
rhand -9.02184 -0.13558
rfingers 7.12502
rthumb 16.9254 -29.4181
lclavicle -2.48481e-017 -2.82274e-014
lhumerus -55.7447 2.38935 80.4587
lradius 37.5014
lwrist 26.1604
lhand -10.0579 7.97816
lfingers 7.12502
lthumb 15.9279 37.3432
rfemur 15.2205 3.24396 32.6031
rtibia 11.3135
rfoot -17.776 -16.5542
rtoes -3.56889
lfemur -30.4123 14.5802 -13.0009
ltibia 42.3164
lfoot -10.4523 4.15015
ltoes -17.5992
1299
root -8.76878 16.5035 -2.67052 357.804 -22.2545 -367.144
lowerback 7.20579 -0.200086 8.05732
upperback -1.64651 0.584529 1.93147
thorax -5.73447 0.0428832 -2.56724
lowerneck 11.2437 -2.39218 0.352561
upperneck -18.9284 -2.69687 2.88155
head -7.64512 -1.60212 1.15435
rclavicle 9.91439e-015 2.57426e-014
rhumerus -27.5354 15.1085 -83.8996
rradius 38.2496
rwrist 7.98154
rhand -8.96743 -0.159218
rfingers 7.12502
rthumb 16.9778 -29.4372
lclavicle 9.91439e-015 2.57426e-014
lhumerus -55.9872 2.6906 80.4227
lradius 37.4092
lwrist 26.1504
lhand -9.91758 8.10496
lfingers 7.12502
lthumb 16.063 37.4591
rfemur 15.4511 3.20716 32.6043
rtibia 11.1348
rfoot -17.7389 -16.2074
rtoes -3.80391
lfemur -30.2528 14.2009 -12.8783
ltibia 40.3989
lfoot -10.9139 4.32249
ltoes -17.4852
1300
root -8.79237 16.4922 -2.58763 358.057 -22.6855 -367.307
lowerback 7.05178 -0.155806 8.20435
upperback -1.66244 0.641049 1.92428
thorax -5.65702 0.0678053 -2.66245
lowerneck 11.1415 -2.32871 0.342934
upperneck -18.8621 -2.60733 2.91667
head -7.60561 -1.56156 1.15612
rclavicle 1.54058e-015 -8.34896e-015
rhumerus -27.5066 15.1909 -84.1243
rradius 38.5303
rwrist 7.80265
rhand -8.92654 -0.178726
rfingers 7.12502
rthumb 17.0172 -29.4533
lclavicle 1.54058e-015 -8.34896e-015
lhumerus -56.2081 2.99219 80.3942
lradius 37.3086
lwrist 26.1256
lhand -9.66058 8.22272
lfingers 7.12502
lthumb 16.3105 37.5568
rfemur 15.6843 3.18532 32.6215
rtibia 10.9466
rfoot -17.6947 -15.8366
rtoes -4.04594
lfemur -30.0579 13.7515 -12.6588
ltibia 38.5533
lfoot -11.4287 4.54807
ltoes -17.3494
1301
root -8.81592 16.4797 -2.50271 358.321 -23.1387 -367.494
lowerback 6.87347 -0.110008 8.36525
upperback -1.67086 0.697589 1.92612
thorax -5.55748 0.0935346 -2.75545
lowerneck 11.0289 -2.26359 0.332709
upperneck -18.7665 -2.51647 2.95035
head -7.55472 -1.51986 1.15689
rclavicle 4.79071e-014 3.40916e-014
rhumerus -27.4826 15.2919 -84.3481
rradius 38.7989
rwrist 7.63262
rhand -8.90663 -0.191545
rfingers 7.12502
rthumb 17.0363 -29.4645
lclavicle 4.79071e-014 3.40916e-014
lhumerus -56.4059 3.2937 80.3748
lradius 37.1986
lwrist 26.0861
lhand -9.3378 8.3191
lfingers 7.12502
lthumb 16.6212 37.6274
rfemur 15.9452 3.17822 32.649
rtibia 10.7266
rfoot -17.6429 -15.4476
rtoes -4.2786
lfemur -29.8225 13.2208 -12.3496
ltibia 36.8026
lfoot -11.9844 4.82513
ltoes -17.1945
1302
root -8.8405 16.4659 -2.41607 358.573 -23.6023 -367.691
lowerback 6.68529 -0.0686948 8.50976
upperback -1.66663 0.744767 1.942
thorax -5.43992 0.116598 -2.82314
lowerneck 10.9018 -2.19281 0.304958
upperneck -18.6431 -2.42116 2.98739
head -7.49201 -1.47476 1.16072
rclavicle -4.39811e-014 -2.98177e-015
rhumerus -27.4619 15.43 -84.566
rradius 39.0547
rwrist 7.46889
rhand -8.9143 -0.202454
rfingers 7.12502
rthumb 17.0289 -29.4761
lclavicle -4.39811e-014 -2.98177e-015
lhumerus -56.5804 3.59111 80.38
lradius 37.0754
lwrist 26.0455
lhand -8.98477 8.38514
lfingers 7.12502
lthumb 16.9611 37.6646
rfemur 16.2569 3.2033 32.692
rtibia 10.4706
rfoot -17.5987 -15.0682
rtoes -4.47866
lfemur -29.5386 12.6196 -11.9615
ltibia 35.1674
lfoot -12.5618 5.12236
ltoes -16.9871
1303
root -8.86581 16.4508 -2.32827 358.816 -24.0728 -367.898
lowerback 6.49915 -0.0333116 8.64182
upperback -1.65589 0.782515 1.96748
thorax -5.31772 0.136091 -2.87253
lowerneck 10.7642 -2.12092 0.26226
upperneck -18.4935 -2.32672 3.0296
head -7.41867 -1.42915 1.1684
rclavicle -7.64079e-016 1.68967e-015
rhumerus -27.4498 15.5866 -84.7787
rradius 39.2931
rwrist 7.34827
rhand -8.89943 -0.195756
rfingers 7.12502
rthumb 17.0432 -29.4681
lclavicle -7.64079e-016 1.68967e-015
lhumerus -56.7389 3.9001 80.386
lradius 36.942
lwrist 25.9791
lhand -8.8061 8.44449
lfingers 7.12502
lthumb 17.1331 37.7091
rfemur 16.6125 3.25329 32.7456
rtibia 10.1829
rfoot -17.5597 -14.6924
rtoes -4.63867
lfemur -29.2211 11.9558 -11.5082
ltibia 33.6687
lfoot -13.1403 5.42729
ltoes -16.7617
1304
root -8.89208 16.4347 -2.23976 359.044 -24.5461 -368.101
lowerback 6.31993 -0.000624629 8.74814
upperback -1.64145 0.814644 1.99784
thorax -5.19632 0.153936 -2.90173
lowerneck 10.6218 -2.05066 0.20907
upperneck -18.3238 -2.23715 3.0702
head -7.33795 -1.38468 1.17755
rclavicle 4.74723e-014 -2.08724e-015
rhumerus -27.4544 15.7578 -84.9894
rradius 39.517
rwrist 7.23826
rhand -8.90628 -0.198238
rfingers 7.12502
rthumb 17.0367 -29.4712
lclavicle 4.74723e-014 -2.08724e-015
lhumerus -56.884 4.21068 80.3976
lradius 36.8025
lwrist 25.8859
lhand -8.65838 8.49005
lfingers 7.12502
lthumb 17.2753 37.7422
rfemur 17.0048 3.488 32.8491
rtibia 9.87848
rfoot -17.5557 -14.4814
rtoes -4.7438
lfemur -28.8755 11.1994 -11.0051
ltibia 32.3204
lfoot -13.7179 5.74573
ltoes -16.4854
1305
root -8.91901 16.4174 -2.15095 359.263 -25.0194 -368.3
lowerback 6.15408 0.0292629 8.8366
upperback -1.63231 0.842882 2.02594
thorax -5.08865 0.169822 -2.92287
lowerneck 10.4841 -1.98852 0.155723
upperneck -18.1372 -2.15885 3.11132
head -7.25263 -1.34538 1.18793
rclavicle -4.60435e-014 -4.85035e-014
rhumerus -27.4891 15.9342 -85.2092
rradius 39.7268
rwrist 7.1394
rhand -8.92909 -0.205632
rfingers 7.12502
rthumb 17.0147 -29.4805
lclavicle -4.60435e-014 -4.85035e-014
lhumerus -57.0254 4.50004 80.4083
lradius 36.6626
lwrist 25.795
lhand -8.50749 8.5239
lfingers 7.12502
lthumb 17.4205 37.7633
rfemur 17.4098 3.72163 32.947
rtibia 9.58224
rfoot -17.5683 -14.2434
rtoes -4.7926
lfemur -28.5212 10.399 -10.4728
ltibia 31.1333
lfoot -14.2734 6.00863
ltoes -16.229
1306
root -8.9458 16.3996 -2.06202 359.482 -25.4951 -368.491
lowerback 6.00524 0.0603059 8.92089
upperback -1.63988 0.874525 2.04135
thorax -5.0078 0.185893 -2.95534
lowerneck 10.367 -1.9363 0.109894
upperneck -17.9396 -2.09191 3.15627
head -7.16755 -1.31224 1.1996
rclavicle -5.71444e-014 -3.47873e-014
rhumerus -27.5685 16.086 -85.4457
rradius 39.9211
rwrist 7.05737
rhand -8.94185 -0.210122
rfingers 7.12502
rthumb 17.0024 -29.486
lclavicle -5.71444e-014 -3.47873e-014
lhumerus -57.1721 4.73985 80.4161
lradius 36.5271
lwrist 25.7174
lhand -8.34144 8.55594
lfingers 7.12502
lthumb 17.5803 37.7811
rfemur 17.8012 3.96072 33.0282
rtibia 9.31675
rfoot -17.6029 -13.9697
rtoes -4.78386
lfemur -28.1665 9.51139 -9.92029
ltibia 30.1067
lfoot -14.8185 6.22201
ltoes -15.9563
1307
root -8.97239 16.3812 -1.97309 359.695 -25.9706 -368.663
lowerback 5.87596 0.0942176 8.99534
upperback -1.66587 0.911813 2.03978
thorax -4.95669 0.203168 -3.00072
lowerneck 10.2704 -1.8988 0.0726821
upperneck -17.7299 -2.04249 3.20702
head -7.08217 -1.28842 1.21351
rclavicle -6.1499e-016 1.97791e-014
rhumerus -27.6965 16.2083 -85.7001
rradius 40.1004
rwrist 6.97663
rhand -8.97582 -0.219185
rfingers 7.12502
rthumb 16.9697 -29.4979
lclavicle -6.1499e-016 1.97791e-014
lhumerus -57.3247 4.91551 80.4217
lradius 36.3935
lwrist 25.6496
lhand -8.174 8.5755
lfingers 7.12502
lthumb 17.7414 37.7862
rfemur 18.1635 4.20327 33.0824
rtibia 9.11517
rfoot -17.6805 -13.6405
rtoes -4.68747
lfemur -27.8164 8.59494 -9.37797
ltibia 29.2389
lfoot -15.3421 6.30752
ltoes -15.7068
